<svg xmlns="http://www.w3.org/2000/svg" width="1180" height="978" viewBox="0 0 1180 978" fill="none"><rect x="0" y="0" width="1180" height="978" rx="0" fill="#ffffff" stroke="#ffffff" stroke-width="1"/><text x="40" y="44" font-family="Segoe UI, Arial, sans-serif" font-size="26" font-weight="bold" fill="#111827" text-anchor="start">M4 real-trace precision boundary</text><text x="40" y="72" font-family="Segoe UI, Arial, sans-serif" font-size="14" font-weight="normal" fill="#374151" text-anchor="start">Earliest failing horizon multiplier by stream and scheme. Green cells stay stable through the exported 64x horizon. All failures are tie_collapse.</text><rect x="40" y="92" width="22" height="18" rx="3" fill="#c7e9c0" stroke="#c7e9c0" stroke-width="1"/><text x="70" y="106" font-family="Segoe UI, Arial, sans-serif" font-size="13" font-weight="normal" fill="#111827" text-anchor="start">64x+</text><rect x="135" y="92" width="22" height="18" rx="3" fill="#fee08b" stroke="#fee08b" stroke-width="1"/><text x="165" y="106" font-family="Segoe UI, Arial, sans-serif" font-size="13" font-weight="normal" fill="#111827" text-anchor="start">64x</text><rect x="230" y="92" width="22" height="18" rx="3" fill="#fdae61" stroke="#fdae61" stroke-width="1"/><text x="260" y="106" font-family="Segoe UI, Arial, sans-serif" font-size="13" font-weight="normal" fill="#111827" text-anchor="start">16x</text><rect x="325" y="92" width="22" height="18" rx="3" fill="#f46d43" stroke="#f46d43" stroke-width="1"/><text x="355" y="106" font-family="Segoe UI, Arial, sans-serif" font-size="13" font-weight="normal" fill="#111827" text-anchor="start">4x</text><rect x="420" y="92" width="22" height="18" rx="3" fill="#d73027" stroke="#d73027" stroke-width="1"/><text x="450" y="106" font-family="Segoe UI, Arial, sans-serif" font-size="13" font-weight="normal" fill="#111827" text-anchor="start">1x</text><text x="590.0" y="122" font-family="Segoe UI, Arial, sans-serif" font-size="14" font-weight="bold" fill="#111827" text-anchor="middle">single_head</text><text x="770.0" y="122" font-family="Segoe UI, Arial, sans-serif" font-size="14" font-weight="bold" fill="#111827" text-anchor="middle">radix2</text><text x="950.0" y="122" font-family="Segoe UI, Arial, sans-serif" font-size="14" font-weight="bold" fill="#111827" text-anchor="middle">block_recentered</text><text x="40" y="132" font-family="Segoe UI, Arial, sans-serif" font-size="13" font-weight="bold" fill="#2563eb" text-anchor="start">OFFSET</text><text x="40" y="160" font-family="Segoe UI, Arial, sans-serif" font-size="13" font-weight="normal" fill="#111827" text-anchor="start">alternating_offset_2048_memory</text><rect x="500" y="140" width="168" height="24" rx="4" fill="#d73027" stroke="#d1d5db" stroke-width="1"/><text x="584.0" y="157" font-family="Segoe UI, Arial, sans-serif" font-size="13" font-weight="bold" fill="#111827" text-anchor="middle">1x</text><rect x="680" y="140" width="168" height="24" rx="4" fill="#c7e9c0" stroke="#d1d5db" stroke-width="1"/><text x="764.0" y="157" font-family="Segoe UI, Arial, sans-serif" font-size="13" font-weight="bold" fill="#111827" text-anchor="middle">64x+</text><rect x="860" y="140" width="168" height="24" rx="4" fill="#c7e9c0" stroke="#d1d5db" stroke-width="1"/><text x="944.0" y="157" font-family="Segoe UI, Arial, sans-serif" font-size="13" font-weight="bold" fill="#111827" text-anchor="middle">64x+</text><line x1="40" y1="168" x2="1140" y2="168" stroke="#f3f4f6" stroke-width="1"/><text x="40" y="192" font-family="Segoe UI, Arial, sans-serif" font-size="13" font-weight="normal" fill="#111827" text-anchor="start">alternating_offset_2048_stack</text><rect x="500" y="172" width="168" height="24" rx="4" fill="#c7e9c0" stroke="#d1d5db" stroke-width="1"/><text x="584.0" y="189" font-family="Segoe UI, Arial, sans-serif" font-size="13" font-weight="bold" fill="#111827" text-anchor="middle">64x+</text><rect x="680" y="172" width="168" height="24" rx="4" fill="#c7e9c0" stroke="#d1d5db" stroke-width="1"/><text x="764.0" y="189" font-family="Segoe UI, Arial, sans-serif" font-size="13" font-weight="bold" fill="#111827" text-anchor="middle">64x+</text><rect x="860" y="172" width="168" height="24" rx="4" fill="#c7e9c0" stroke="#d1d5db" stroke-width="1"/><text x="944.0" y="189" font-family="Segoe UI, Arial, sans-serif" font-size="13" font-weight="bold" fill="#111827" text-anchor="middle">64x+</text><line x1="40" y1="200" x2="1140" y2="200" stroke="#f3f4f6" stroke-width="1"/><text x="40" y="224" font-family="Segoe UI, Arial, sans-serif" font-size="13" font-weight="normal" fill="#111827" text-anchor="start">alternating_offset_256_memory</text><rect x="500" y="204" width="168" height="24" rx="4" fill="#fdae61" stroke="#d1d5db" stroke-width="1"/><text x="584.0" y="221" font-family="Segoe UI, Arial, sans-serif" font-size="13" font-weight="bold" fill="#111827" text-anchor="middle">16x</text><rect x="680" y="204" width="168" height="24" rx="4" fill="#c7e9c0" stroke="#d1d5db" stroke-width="1"/><text x="764.0" y="221" font-family="Segoe UI, Arial, sans-serif" font-size="13" font-weight="bold" fill="#111827" text-anchor="middle">64x+</text><rect x="860" y="204" width="168" height="24" rx="4" fill="#c7e9c0" stroke="#d1d5db" stroke-width="1"/><text x="944.0" y="221" font-family="Segoe UI, Arial, sans-serif" font-size="13" font-weight="bold" fill="#111827" text-anchor="middle">64x+</text><line x1="40" y1="232" x2="1140" y2="232" stroke="#f3f4f6" stroke-width="1"/><text x="40" y="256" font-family="Segoe UI, Arial, sans-serif" font-size="13" font-weight="normal" fill="#111827" text-anchor="start">alternating_offset_256_stack</text><rect x="500" y="236" width="168" height="24" rx="4" fill="#c7e9c0" stroke="#d1d5db" stroke-width="1"/><text x="584.0" y="253" font-family="Segoe UI, Arial, sans-serif" font-size="13" font-weight="bold" fill="#111827" text-anchor="middle">64x+</text><rect x="680" y="236" width="168" height="24" rx="4" fill="#c7e9c0" stroke="#d1d5db" stroke-width="1"/><text x="764.0" y="253" font-family="Segoe UI, Arial, sans-serif" font-size="13" font-weight="bold" fill="#111827" text-anchor="middle">64x+</text><rect x="860" y="236" width="168" height="24" rx="4" fill="#c7e9c0" stroke="#d1d5db" stroke-width="1"/><text x="944.0" y="253" font-family="Segoe UI, Arial, sans-serif" font-size="13" font-weight="bold" fill="#111827" text-anchor="middle">64x+</text><line x1="40" y1="264" x2="1140" y2="264" stroke="#f3f4f6" stroke-width="1"/><text x="40" y="288" font-family="Segoe UI, Arial, sans-serif" font-size="13" font-weight="normal" fill="#111827" text-anchor="start">loop_offset_1024_memory</text><rect x="500" y="268" width="168" height="24" rx="4" fill="#d73027" stroke="#d1d5db" stroke-width="1"/><text x="584.0" y="285" font-family="Segoe UI, Arial, sans-serif" font-size="13" font-weight="bold" fill="#111827" text-anchor="middle">1x</text><rect x="680" y="268" width="168" height="24" rx="4" fill="#c7e9c0" stroke="#d1d5db" stroke-width="1"/><text x="764.0" y="285" font-family="Segoe UI, Arial, sans-serif" font-size="13" font-weight="bold" fill="#111827" text-anchor="middle">64x+</text><rect x="860" y="268" width="168" height="24" rx="4" fill="#c7e9c0" stroke="#d1d5db" stroke-width="1"/><text x="944.0" y="285" font-family="Segoe UI, Arial, sans-serif" font-size="13" font-weight="bold" fill="#111827" text-anchor="middle">64x+</text><line x1="40" y1="296" x2="1140" y2="296" stroke="#f3f4f6" stroke-width="1"/><text x="40" y="320" font-family="Segoe UI, Arial, sans-serif" font-size="13" font-weight="normal" fill="#111827" text-anchor="start">loop_offset_1024_stack</text><rect x="500" y="300" width="168" height="24" rx="4" fill="#c7e9c0" stroke="#d1d5db" stroke-width="1"/><text x="584.0" y="317" font-family="Segoe UI, Arial, sans-serif" font-size="13" font-weight="bold" fill="#111827" text-anchor="middle">64x+</text><rect x="680" y="300" width="168" height="24" rx="4" fill="#c7e9c0" stroke="#d1d5db" stroke-width="1"/><text x="764.0" y="317" font-family="Segoe UI, Arial, sans-serif" font-size="13" font-weight="bold" fill="#111827" text-anchor="middle">64x+</text><rect x="860" y="300" width="168" height="24" rx="4" fill="#c7e9c0" stroke="#d1d5db" stroke-width="1"/><text x="944.0" y="317" font-family="Segoe UI, Arial, sans-serif" font-size="13" font-weight="bold" fill="#111827" text-anchor="middle">64x+</text><line x1="40" y1="328" x2="1140" y2="328" stroke="#f3f4f6" stroke-width="1"/><text x="40" y="352" font-family="Segoe UI, Arial, sans-serif" font-size="13" font-weight="normal" fill="#111827" text-anchor="start">loop_offset_256_memory</text><rect x="500" y="332" width="168" height="24" rx="4" fill="#fdae61" stroke="#d1d5db" stroke-width="1"/><text x="584.0" y="349" font-family="Segoe UI, Arial, sans-serif" font-size="13" font-weight="bold" fill="#111827" text-anchor="middle">16x</text><rect x="680" y="332" width="168" height="24" rx="4" fill="#c7e9c0" stroke="#d1d5db" stroke-width="1"/><text x="764.0" y="349" font-family="Segoe UI, Arial, sans-serif" font-size="13" font-weight="bold" fill="#111827" text-anchor="middle">64x+</text><rect x="860" y="332" width="168" height="24" rx="4" fill="#c7e9c0" stroke="#d1d5db" stroke-width="1"/><text x="944.0" y="349" font-family="Segoe UI, Arial, sans-serif" font-size="13" font-weight="bold" fill="#111827" text-anchor="middle">64x+</text><line x1="40" y1="360" x2="1140" y2="360" stroke="#f3f4f6" stroke-width="1"/><text x="40" y="384" font-family="Segoe UI, Arial, sans-serif" font-size="13" font-weight="normal" fill="#111827" text-anchor="start">loop_offset_256_stack</text><rect x="500" y="364" width="168" height="24" rx="4" fill="#c7e9c0" stroke="#d1d5db" stroke-width="1"/><text x="584.0" y="381" font-family="Segoe UI, Arial, sans-serif" font-size="13" font-weight="bold" fill="#111827" text-anchor="middle">64x+</text><rect x="680" y="364" width="168" height="24" rx="4" fill="#c7e9c0" stroke="#d1d5db" stroke-width="1"/><text x="764.0" y="381" font-family="Segoe UI, Arial, sans-serif" font-size="13" font-weight="bold" fill="#111827" text-anchor="middle">64x+</text><rect x="860" y="364" width="168" height="24" rx="4" fill="#c7e9c0" stroke="#d1d5db" stroke-width="1"/><text x="944.0" y="381" font-family="Segoe UI, Arial, sans-serif" font-size="13" font-weight="bold" fill="#111827" text-anchor="middle">64x+</text><line x1="40" y1="392" x2="1140" y2="392" stroke="#f3f4f6" stroke-width="1"/><text x="40" y="416" font-family="Segoe UI, Arial, sans-serif" font-size="13" font-weight="normal" fill="#111827" text-anchor="start">loop_offset_4096_memory</text><rect x="500" y="396" width="168" height="24" rx="4" fill="#d73027" stroke="#d1d5db" stroke-width="1"/><text x="584.0" y="413" font-family="Segoe UI, Arial, sans-serif" font-size="13" font-weight="bold" fill="#111827" text-anchor="middle">1x</text><rect x="680" y="396" width="168" height="24" rx="4" fill="#c7e9c0" stroke="#d1d5db" stroke-width="1"/><text x="764.0" y="413" font-family="Segoe UI, Arial, sans-serif" font-size="13" font-weight="bold" fill="#111827" text-anchor="middle">64x+</text><rect x="860" y="396" width="168" height="24" rx="4" fill="#c7e9c0" stroke="#d1d5db" stroke-width="1"/><text x="944.0" y="413" font-family="Segoe UI, Arial, sans-serif" font-size="13" font-weight="bold" fill="#111827" text-anchor="middle">64x+</text><line x1="40" y1="424" x2="1140" y2="424" stroke="#f3f4f6" stroke-width="1"/><text x="40" y="448" font-family="Segoe UI, Arial, sans-serif" font-size="13" font-weight="normal" fill="#111827" text-anchor="start">loop_offset_4096_stack</text><rect x="500" y="428" width="168" height="24" rx="4" fill="#c7e9c0" stroke="#d1d5db" stroke-width="1"/><text x="584.0" y="445" font-family="Segoe UI, Arial, sans-serif" font-size="13" font-weight="bold" fill="#111827" text-anchor="middle">64x+</text><rect x="680" y="428" width="168" height="24" rx="4" fill="#c7e9c0" stroke="#d1d5db" stroke-width="1"/><text x="764.0" y="445" font-family="Segoe UI, Arial, sans-serif" font-size="13" font-weight="bold" fill="#111827" text-anchor="middle">64x+</text><rect x="860" y="428" width="168" height="24" rx="4" fill="#c7e9c0" stroke="#d1d5db" stroke-width="1"/><text x="944.0" y="445" font-family="Segoe UI, Arial, sans-serif" font-size="13" font-weight="bold" fill="#111827" text-anchor="middle">64x+</text><line x1="40" y1="456" x2="1140" y2="456" stroke="#f3f4f6" stroke-width="1"/><text x="40" y="480" font-family="Segoe UI, Arial, sans-serif" font-size="13" font-weight="normal" fill="#111827" text-anchor="start">loop_offset_64_memory</text><rect x="500" y="460" width="168" height="24" rx="4" fill="#c7e9c0" stroke="#d1d5db" stroke-width="1"/><text x="584.0" y="477" font-family="Segoe UI, Arial, sans-serif" font-size="13" font-weight="bold" fill="#111827" text-anchor="middle">64x+</text><rect x="680" y="460" width="168" height="24" rx="4" fill="#c7e9c0" stroke="#d1d5db" stroke-width="1"/><text x="764.0" y="477" font-family="Segoe UI, Arial, sans-serif" font-size="13" font-weight="bold" fill="#111827" text-anchor="middle">64x+</text><rect x="860" y="460" width="168" height="24" rx="4" fill="#c7e9c0" stroke="#d1d5db" stroke-width="1"/><text x="944.0" y="477" font-family="Segoe UI, Arial, sans-serif" font-size="13" font-weight="bold" fill="#111827" text-anchor="middle">64x+</text><line x1="40" y1="488" x2="1140" y2="488" stroke="#f3f4f6" stroke-width="1"/><text x="40" y="512" font-family="Segoe UI, Arial, sans-serif" font-size="13" font-weight="normal" fill="#111827" text-anchor="start">loop_offset_64_stack</text><rect x="500" y="492" width="168" height="24" rx="4" fill="#c7e9c0" stroke="#d1d5db" stroke-width="1"/><text x="584.0" y="509" font-family="Segoe UI, Arial, sans-serif" font-size="13" font-weight="bold" fill="#111827" text-anchor="middle">64x+</text><rect x="680" y="492" width="168" height="24" rx="4" fill="#c7e9c0" stroke="#d1d5db" stroke-width="1"/><text x="764.0" y="509" font-family="Segoe UI, Arial, sans-serif" font-size="13" font-weight="bold" fill="#111827" text-anchor="middle">64x+</text><rect x="860" y="492" width="168" height="24" rx="4" fill="#c7e9c0" stroke="#d1d5db" stroke-width="1"/><text x="944.0" y="509" font-family="Segoe UI, Arial, sans-serif" font-size="13" font-weight="bold" fill="#111827" text-anchor="middle">64x+</text><line x1="40" y1="520" x2="1140" y2="520" stroke="#f3f4f6" stroke-width="1"/><text x="40" y="544" font-family="Segoe UI, Arial, sans-serif" font-size="13" font-weight="normal" fill="#111827" text-anchor="start">ping_pong_offset_128_memory</text><rect x="500" y="524" width="168" height="24" rx="4" fill="#c7e9c0" stroke="#d1d5db" stroke-width="1"/><text x="584.0" y="541" font-family="Segoe UI, Arial, sans-serif" font-size="13" font-weight="bold" fill="#111827" text-anchor="middle">64x+</text><rect x="680" y="524" width="168" height="24" rx="4" fill="#c7e9c0" stroke="#d1d5db" stroke-width="1"/><text x="764.0" y="541" font-family="Segoe UI, Arial, sans-serif" font-size="13" font-weight="bold" fill="#111827" text-anchor="middle">64x+</text><rect x="860" y="524" width="168" height="24" rx="4" fill="#c7e9c0" stroke="#d1d5db" stroke-width="1"/><text x="944.0" y="541" font-family="Segoe UI, Arial, sans-serif" font-size="13" font-weight="bold" fill="#111827" text-anchor="middle">64x+</text><line x1="40" y1="552" x2="1140" y2="552" stroke="#f3f4f6" stroke-width="1"/><text x="40" y="576" font-family="Segoe UI, Arial, sans-serif" font-size="13" font-weight="normal" fill="#111827" text-anchor="start">ping_pong_offset_128_stack</text><rect x="500" y="556" width="168" height="24" rx="4" fill="#c7e9c0" stroke="#d1d5db" stroke-width="1"/><text x="584.0" y="573" font-family="Segoe UI, Arial, sans-serif" font-size="13" font-weight="bold" fill="#111827" text-anchor="middle">64x+</text><rect x="680" y="556" width="168" height="24" rx="4" fill="#c7e9c0" stroke="#d1d5db" stroke-width="1"/><text x="764.0" y="573" font-family="Segoe UI, Arial, sans-serif" font-size="13" font-weight="bold" fill="#111827" text-anchor="middle">64x+</text><rect x="860" y="556" width="168" height="24" rx="4" fill="#c7e9c0" stroke="#d1d5db" stroke-width="1"/><text x="944.0" y="573" font-family="Segoe UI, Arial, sans-serif" font-size="13" font-weight="bold" fill="#111827" text-anchor="middle">64x+</text><line x1="40" y1="584" x2="1140" y2="584" stroke="#f3f4f6" stroke-width="1"/><text x="40" y="608" font-family="Segoe UI, Arial, sans-serif" font-size="13" font-weight="normal" fill="#111827" text-anchor="start">ping_pong_offset_2048_memory</text><rect x="500" y="588" width="168" height="24" rx="4" fill="#f46d43" stroke="#d1d5db" stroke-width="1"/><text x="584.0" y="605" font-family="Segoe UI, Arial, sans-serif" font-size="13" font-weight="bold" fill="#111827" text-anchor="middle">4x</text><rect x="680" y="588" width="168" height="24" rx="4" fill="#c7e9c0" stroke="#d1d5db" stroke-width="1"/><text x="764.0" y="605" font-family="Segoe UI, Arial, sans-serif" font-size="13" font-weight="bold" fill="#111827" text-anchor="middle">64x+</text><rect x="860" y="588" width="168" height="24" rx="4" fill="#c7e9c0" stroke="#d1d5db" stroke-width="1"/><text x="944.0" y="605" font-family="Segoe UI, Arial, sans-serif" font-size="13" font-weight="bold" fill="#111827" text-anchor="middle">64x+</text><line x1="40" y1="616" x2="1140" y2="616" stroke="#f3f4f6" stroke-width="1"/><text x="40" y="640" font-family="Segoe UI, Arial, sans-serif" font-size="13" font-weight="normal" fill="#111827" text-anchor="start">ping_pong_offset_2048_stack</text><rect x="500" y="620" width="168" height="24" rx="4" fill="#c7e9c0" stroke="#d1d5db" stroke-width="1"/><text x="584.0" y="637" font-family="Segoe UI, Arial, sans-serif" font-size="13" font-weight="bold" fill="#111827" text-anchor="middle">64x+</text><rect x="680" y="620" width="168" height="24" rx="4" fill="#c7e9c0" stroke="#d1d5db" stroke-width="1"/><text x="764.0" y="637" font-family="Segoe UI, Arial, sans-serif" font-size="13" font-weight="bold" fill="#111827" text-anchor="middle">64x+</text><rect x="860" y="620" width="168" height="24" rx="4" fill="#c7e9c0" stroke="#d1d5db" stroke-width="1"/><text x="944.0" y="637" font-family="Segoe UI, Arial, sans-serif" font-size="13" font-weight="bold" fill="#111827" text-anchor="middle">64x+</text><line x1="40" y1="648" x2="1140" y2="648" stroke="#f3f4f6" stroke-width="1"/><text x="40" y="672" font-family="Segoe UI, Arial, sans-serif" font-size="13" font-weight="normal" fill="#111827" text-anchor="start">ping_pong_offset_512_memory</text><rect x="500" y="652" width="168" height="24" rx="4" fill="#fee08b" stroke="#d1d5db" stroke-width="1"/><text x="584.0" y="669" font-family="Segoe UI, Arial, sans-serif" font-size="13" font-weight="bold" fill="#111827" text-anchor="middle">64x</text><rect x="680" y="652" width="168" height="24" rx="4" fill="#c7e9c0" stroke="#d1d5db" stroke-width="1"/><text x="764.0" y="669" font-family="Segoe UI, Arial, sans-serif" font-size="13" font-weight="bold" fill="#111827" text-anchor="middle">64x+</text><rect x="860" y="652" width="168" height="24" rx="4" fill="#c7e9c0" stroke="#d1d5db" stroke-width="1"/><text x="944.0" y="669" font-family="Segoe UI, Arial, sans-serif" font-size="13" font-weight="bold" fill="#111827" text-anchor="middle">64x+</text><line x1="40" y1="680" x2="1140" y2="680" stroke="#f3f4f6" stroke-width="1"/><text x="40" y="704" font-family="Segoe UI, Arial, sans-serif" font-size="13" font-weight="normal" fill="#111827" text-anchor="start">ping_pong_offset_512_stack</text><rect x="500" y="684" width="168" height="24" rx="4" fill="#c7e9c0" stroke="#d1d5db" stroke-width="1"/><text x="584.0" y="701" font-family="Segoe UI, Arial, sans-serif" font-size="13" font-weight="bold" fill="#111827" text-anchor="middle">64x+</text><rect x="680" y="684" width="168" height="24" rx="4" fill="#c7e9c0" stroke="#d1d5db" stroke-width="1"/><text x="764.0" y="701" font-family="Segoe UI, Arial, sans-serif" font-size="13" font-weight="bold" fill="#111827" text-anchor="middle">64x+</text><rect x="860" y="684" width="168" height="24" rx="4" fill="#c7e9c0" stroke="#d1d5db" stroke-width="1"/><text x="944.0" y="701" font-family="Segoe UI, Arial, sans-serif" font-size="13" font-weight="bold" fill="#111827" text-anchor="middle">64x+</text><line x1="40" y1="712" x2="1140" y2="712" stroke="#f3f4f6" stroke-width="1"/><text x="40" y="736" font-family="Segoe UI, Arial, sans-serif" font-size="13" font-weight="normal" fill="#111827" text-anchor="start">ping_pong_offset_8192_memory</text><rect x="500" y="716" width="168" height="24" rx="4" fill="#d73027" stroke="#d1d5db" stroke-width="1"/><text x="584.0" y="733" font-family="Segoe UI, Arial, sans-serif" font-size="13" font-weight="bold" fill="#111827" text-anchor="middle">1x</text><rect x="680" y="716" width="168" height="24" rx="4" fill="#c7e9c0" stroke="#d1d5db" stroke-width="1"/><text x="764.0" y="733" font-family="Segoe UI, Arial, sans-serif" font-size="13" font-weight="bold" fill="#111827" text-anchor="middle">64x+</text><rect x="860" y="716" width="168" height="24" rx="4" fill="#c7e9c0" stroke="#d1d5db" stroke-width="1"/><text x="944.0" y="733" font-family="Segoe UI, Arial, sans-serif" font-size="13" font-weight="bold" fill="#111827" text-anchor="middle">64x+</text><line x1="40" y1="744" x2="1140" y2="744" stroke="#f3f4f6" stroke-width="1"/><text x="40" y="768" font-family="Segoe UI, Arial, sans-serif" font-size="13" font-weight="normal" fill="#111827" text-anchor="start">ping_pong_offset_8192_stack</text><rect x="500" y="748" width="168" height="24" rx="4" fill="#c7e9c0" stroke="#d1d5db" stroke-width="1"/><text x="584.0" y="765" font-family="Segoe UI, Arial, sans-serif" font-size="13" font-weight="bold" fill="#111827" text-anchor="middle">64x+</text><rect x="680" y="748" width="168" height="24" rx="4" fill="#c7e9c0" stroke="#d1d5db" stroke-width="1"/><text x="764.0" y="765" font-family="Segoe UI, Arial, sans-serif" font-size="13" font-weight="bold" fill="#111827" text-anchor="middle">64x+</text><rect x="860" y="748" width="168" height="24" rx="4" fill="#c7e9c0" stroke="#d1d5db" stroke-width="1"/><text x="944.0" y="765" font-family="Segoe UI, Arial, sans-serif" font-size="13" font-weight="bold" fill="#111827" text-anchor="middle">64x+</text><line x1="40" y1="776" x2="1140" y2="776" stroke="#f3f4f6" stroke-width="1"/><text x="40" y="772" font-family="Segoe UI, Arial, sans-serif" font-size="13" font-weight="bold" fill="#2563eb" text-anchor="start">ORGANIC</text><text x="40" y="800" font-family="Segoe UI, Arial, sans-serif" font-size="13" font-weight="normal" fill="#111827" text-anchor="start">flagged_indirect_accumulator_10_a1024_memory</text><rect x="500" y="780" width="168" height="24" rx="4" fill="#d73027" stroke="#d1d5db" stroke-width="1"/><text x="584.0" y="797" font-family="Segoe UI, Arial, sans-serif" font-size="13" font-weight="bold" fill="#111827" text-anchor="middle">1x</text><rect x="680" y="780" width="168" height="24" rx="4" fill="#c7e9c0" stroke="#d1d5db" stroke-width="1"/><text x="764.0" y="797" font-family="Segoe UI, Arial, sans-serif" font-size="13" font-weight="bold" fill="#111827" text-anchor="middle">64x+</text><rect x="860" y="780" width="168" height="24" rx="4" fill="#c7e9c0" stroke="#d1d5db" stroke-width="1"/><text x="944.0" y="797" font-family="Segoe UI, Arial, sans-serif" font-size="13" font-weight="bold" fill="#111827" text-anchor="middle">64x+</text><line x1="40" y1="808" x2="1140" y2="808" stroke="#f3f4f6" stroke-width="1"/><text x="40" y="832" font-family="Segoe UI, Arial, sans-serif" font-size="13" font-weight="normal" fill="#111827" text-anchor="start">hotspot_memory_rewrite_12_a2048_memory</text><rect x="500" y="812" width="168" height="24" rx="4" fill="#d73027" stroke="#d1d5db" stroke-width="1"/><text x="584.0" y="829" font-family="Segoe UI, Arial, sans-serif" font-size="13" font-weight="bold" fill="#111827" text-anchor="middle">1x</text><rect x="680" y="812" width="168" height="24" rx="4" fill="#c7e9c0" stroke="#d1d5db" stroke-width="1"/><text x="764.0" y="829" font-family="Segoe UI, Arial, sans-serif" font-size="13" font-weight="bold" fill="#111827" text-anchor="middle">64x+</text><rect x="860" y="812" width="168" height="24" rx="4" fill="#c7e9c0" stroke="#d1d5db" stroke-width="1"/><text x="944.0" y="829" font-family="Segoe UI, Arial, sans-serif" font-size="13" font-weight="bold" fill="#111827" text-anchor="middle">64x+</text><line x1="40" y1="840" x2="1140" y2="840" stroke="#f3f4f6" stroke-width="1"/><text x="40" y="864" font-family="Segoe UI, Arial, sans-serif" font-size="13" font-weight="normal" fill="#111827" text-anchor="start">selector_checkpoint_bank_9_a1536_memory</text><rect x="500" y="844" width="168" height="24" rx="4" fill="#d73027" stroke="#d1d5db" stroke-width="1"/><text x="584.0" y="861" font-family="Segoe UI, Arial, sans-serif" font-size="13" font-weight="bold" fill="#111827" text-anchor="middle">1x</text><rect x="680" y="844" width="168" height="24" rx="4" fill="#c7e9c0" stroke="#d1d5db" stroke-width="1"/><text x="764.0" y="861" font-family="Segoe UI, Arial, sans-serif" font-size="13" font-weight="bold" fill="#111827" text-anchor="middle">64x+</text><rect x="860" y="844" width="168" height="24" rx="4" fill="#c7e9c0" stroke="#d1d5db" stroke-width="1"/><text x="944.0" y="861" font-family="Segoe UI, Arial, sans-serif" font-size="13" font-weight="bold" fill="#111827" text-anchor="middle">64x+</text><line x1="40" y1="872" x2="1140" y2="872" stroke="#f3f4f6" stroke-width="1"/><text x="40" y="896" font-family="Segoe UI, Arial, sans-serif" font-size="13" font-weight="normal" fill="#111827" text-anchor="start">stack_fanout_sum_256_v1_stack</text><rect x="500" y="876" width="168" height="24" rx="4" fill="#f46d43" stroke="#d1d5db" stroke-width="1"/><text x="584.0" y="893" font-family="Segoe UI, Arial, sans-serif" font-size="13" font-weight="bold" fill="#111827" text-anchor="middle">4x</text><rect x="680" y="876" width="168" height="24" rx="4" fill="#f46d43" stroke="#d1d5db" stroke-width="1"/><text x="764.0" y="893" font-family="Segoe UI, Arial, sans-serif" font-size="13" font-weight="bold" fill="#111827" text-anchor="middle">4x</text><rect x="860" y="876" width="168" height="24" rx="4" fill="#f46d43" stroke="#d1d5db" stroke-width="1"/><text x="944.0" y="893" font-family="Segoe UI, Arial, sans-serif" font-size="13" font-weight="bold" fill="#111827" text-anchor="middle">4x</text><line x1="40" y1="904" x2="1140" y2="904" stroke="#f3f4f6" stroke-width="1"/><text x="40" y="950" font-family="Segoe UI, Arial, sans-serif" font-size="13" font-weight="normal" fill="#374151" text-anchor="start">Single-head float32 is the only failing scheme in the current bundle. Radix-2 and block-recentered stay stable through the exported 64x sweep on all current rows.</text></svg>